<svg xmlns="http://www.w3.org/2000/svg" version="1.1" xmlns:xlink="http://www.w3.org/1999/xlink" width="512" height="512" x="0" y="0" viewBox="0 0 512 512" style="enable-background:new 0 0 512 512" xml:space="preserve" class=""><g><path d="m440.501 361.043-.176-.293c-.43-.703-.871-1.4-1.322-2.092a86.322 86.322 0 0 0-2.947-4.26c-.127-.172-.245-.348-.372-.519-.091-.121-.187-.236-.278-.357a85.087 85.087 0 0 0-1.566-2.01c-.186-.232-.37-.465-.557-.694a86.82 86.82 0 0 0-1.617-1.912c-.228-.263-.453-.528-.683-.788a83.463 83.463 0 0 0-1.392-1.519c-.349-.376-.695-.754-1.05-1.123-.266-.276-.541-.544-.811-.816-10.356-10.482-23.117-18.137-37.485-22.367a7.354 7.354 0 0 0-.749-.18l-67.8-12.595c-.12-.022-.24-.028-.36-.047a16.61 16.61 0 0 0-9.322 1.183c-2.36-2.898-3.915-6.879-3.915-10.557v-12.274a108.803 108.803 0 0 0 12.462-9.269c16.801-14.466 27.382-35.347 29.665-58.126 12.336-.57 22.195-10.784 22.195-23.258v-17.488a23.184 23.184 0 0 0-8.504-17.984v-40.202c24.514-12.081 29.841-26.166 29.841-36.104 0-17.052-15.882-38.396-41.448-55.704C335.931 18.601 301.639 0 255.999 0s-79.931 18.601-96.31 29.688c-25.566 17.307-41.448 38.651-41.448 55.704 0 9.938 5.327 24.023 29.841 36.104v40.202a23.187 23.187 0 0 0-8.504 17.984v17.488c0 12.474 9.859 22.688 22.195 23.258 2.282 22.779 12.864 43.661 29.665 58.126a108.803 108.803 0 0 0 12.462 9.269v12.274c0 3.678-1.555 7.658-3.915 10.556a16.587 16.587 0 0 0-9.682-1.135l-67.799 12.595a7.354 7.354 0 0 0-.749.18c-14.361 4.228-27.116 11.877-37.47 22.351-.277.279-.557.554-.83.836-.35.363-.691.737-1.035 1.107a92.998 92.998 0 0 0-1.407 1.535c-.227.256-.449.518-.674.777a84.918 84.918 0 0 0-1.624 1.921c-.187.228-.369.46-.554.69a86.776 86.776 0 0 0-1.568 2.012c-.091.121-.187.235-.278.357-.128.171-.246.347-.372.519a86.843 86.843 0 0 0-2.945 4.258 91.962 91.962 0 0 0-1.5 2.386c-8.289 13.659-12.648 29.169-12.648 45.346v9.144a7.502 7.502 0 1 0 15.004 0v-9.144a72.628 72.628 0 0 1 3.172-21.283c4.415 3.511 9.773 5.381 15.342 5.381.89 0 1.787-.048 2.684-.145 6.569-.704 12.471-3.925 16.618-9.068l8.164-10.125a24.576 24.576 0 0 0 5.339-18.163 24.553 24.553 0 0 0-6.154-13.848 73.917 73.917 0 0 1 6.615-2.345l43.261-8.036 34.328 48.037c3.436 4.806 8.816 7.456 14.396 7.456a17.88 17.88 0 0 0 6.999-1.435l2.285-.971 9.99 11.614-14.409 103.538H128.21v-60.833c0-4.144-3.359-7.502-7.502-7.502s-7.502 3.358-7.502 7.502v60.833h-30.01c-5.151 0-9.34-4.19-9.34-9.34v-37.214a7.502 7.502 0 1 0-15.004 0v37.214c0 13.423 10.921 24.345 24.345 24.345h345.608c13.424 0 24.345-10.922 24.345-24.345V406.39c-.002-16.178-4.36-31.688-12.649-45.347zm-332.348.689-8.164 10.126a9.668 9.668 0 0 1-6.536 3.567 9.671 9.671 0 0 1-7.144-2.1l-3.131-2.524a73.802 73.802 0 0 1 2.11-3.527l.026-.04c.63-.988 1.293-1.95 1.968-2.903.205-.288.409-.576.618-.862a72.077 72.077 0 0 1 1.856-2.429c.164-.206.325-.415.491-.619a71.623 71.623 0 0 1 2.214-2.58c.221-.247.446-.489.67-.732a71.053 71.053 0 0 1 2.299-2.391c.067-.067.133-.136.201-.203a72.483 72.483 0 0 1 9.413-7.789l1.644 1.326a9.664 9.664 0 0 1 3.567 6.536 9.676 9.676 0 0 1-2.102 7.144zm297.159-13.682 1.644-1.326a72.416 72.416 0 0 1 9.413 7.789c.068.067.133.136.201.203a73.013 73.013 0 0 1 2.299 2.391c.224.243.449.485.67.732a72.5 72.5 0 0 1 2.214 2.58c.166.204.327.413.491.619a73.104 73.104 0 0 1 2.474 3.291 72.803 72.803 0 0 1 1.994 2.943 72.18 72.18 0 0 1 2.11 3.527l-3.131 2.524a9.68 9.68 0 0 1-7.144 2.1 9.665 9.665 0 0 1-6.537-3.568l-8.164-10.125c-3.368-4.176-2.709-10.312 1.466-13.68zm-89.573-22.003a.6.6 0 0 0 .03-.023l1.963-1.468a1.579 1.579 0 0 1 1.222-.285l7.869 1.462-30.254 42.336a2.741 2.741 0 0 1-3.322.935l-22.304-9.475 44.796-33.482zm-59.74 25.918-43.717-32.676c4.13-5.422 6.623-12.323 6.623-19.192v-4.392c11.572 4.848 23.937 7.383 37.011 7.529h.168c13.074-.147 25.439-2.682 37.011-7.529v4.392c0 6.87 2.493 13.77 6.622 19.192l-43.718 32.676zm14.604 23.722-6.834 7.945h-15.537l-6.834-7.945L256 369.484l14.603 6.203zM148.082 104.394c-9.642-5.944-14.836-12.51-14.836-19.003 0-13.524 18.067-31.914 34.854-43.278 14.956-10.123 46.262-27.108 87.899-27.108s72.943 16.985 87.899 27.109c16.787 11.364 34.854 29.754 34.854 43.278 0 6.492-5.194 13.059-14.836 19.003V90.752a23.164 23.164 0 0 0-17.44-22.453c-19.423-4.964-57.616-13.292-95.174-13.307h-.096c-32.523 0-64.835 7.161-86.218 13.171-9.954 2.798-16.906 11.972-16.906 22.309v13.922zm26.019 26.34-.316-.2a48.536 48.536 0 0 1-3.04-2.119 39.304 39.304 0 0 1-.704-.552 33.24 33.24 0 0 1-.807-.661 30.07 30.07 0 0 1-.798-.707c-.194-.177-.39-.353-.574-.53a25.543 25.543 0 0 1-.836-.85c-.128-.135-.262-.271-.384-.406l-.037-.044h125.954a7.502 7.502 0 0 0 0-15.004H163.087V90.473a8.198 8.198 0 0 1 5.961-7.864c20.477-5.756 51.341-12.612 82.158-12.612h.089c35.919.015 72.724 8.05 91.465 12.84a8.166 8.166 0 0 1 6.15 7.915v18.908h-20.12a7.502 7.502 0 1 0 .001 15.005h16.606l-.037.044c-.122.135-.256.271-.384.406-.268.283-.542.566-.836.85-.184.177-.38.353-.574.53a30.07 30.07 0 0 1-.798.707c-.26.221-.531.441-.807.661-.23.184-.463.368-.704.552a41.129 41.129 0 0 1-1.631 1.181c-.456.314-.923.627-1.409.938l-.316.2c-3.118 1.962-6.833 3.855-11.079 5.611-.089.037-.169.089-.256.129-16.074 6.626-40.229 11.633-70.565 11.633s-54.491-5.007-70.565-11.633c-.087-.04-.167-.092-.256-.129-4.246-1.756-7.961-3.649-11.079-5.611zm.708 17.434v14.616c-4.125-2.138-8.299-3.288-11.721-3.903v-17.434c3.218 2.287 7.088 4.545 11.721 6.721zm162.381-.001c4.633-2.175 8.502-4.433 11.721-6.72v17.432c-3.422.615-7.596 1.766-11.721 3.904v-14.616zM201.228 267.183c-15.365-13.229-24.44-33.055-24.898-54.394a7.502 7.502 0 0 0-7.5-7.341h-5.969c-4.564 0-8.278-3.713-8.278-8.278v-17.488a8.239 8.239 0 0 1 3.044-6.403c2.645.234 7.583 1.027 11.771 3.687l.125.08a17.354 17.354 0 0 1 2.693 2.147c.223.22.456.425.694.621.07.058.141.112.212.168.18.141.363.275.55.402.074.05.146.101.221.149.254.164.511.319.776.458l.004.003c.269.141.544.267.823.383.077.032.155.061.233.091.212.083.425.158.641.226.081.026.161.052.243.075.283.082.568.154.856.211l.014.003c.296.058.595.099.895.131.081.009.162.014.242.02.227.019.455.03.684.033.052.001.103.007.154.007.033 0 .067-.005.1-.005.295-.003.591-.015.887-.043l.023-.001c.303-.03.606-.077.908-.135.085-.016.17-.036.255-.054.224-.049.447-.105.67-.168.088-.025.176-.049.264-.077.296-.094.59-.196.881-.317a10.325 10.325 0 0 0 6.367-9.551v-17.942c19.318 6.084 43.071 9.23 66.186 9.23s46.868-3.146 66.186-9.23v17.942a10.324 10.324 0 0 0 7.252 9.87c.084.026.168.049.252.074.228.065.457.123.687.172.08.017.16.036.241.051.607.116 1.219.175 1.829.18.031 0 .063.005.094.005.048 0 .096-.006.145-.007.235-.003.469-.015.703-.034.076-.006.152-.011.228-.019.6-.063 1.193-.179 1.773-.347.079-.023.157-.048.236-.073.218-.068.433-.145.647-.228.077-.03.155-.059.231-.091.279-.116.555-.242.824-.383l.006-.003c.264-.139.521-.294.774-.457.075-.048.148-.1.223-.15.186-.127.369-.261.548-.401.072-.056.144-.111.214-.169.238-.197.471-.401.693-.621.252-.25.514-.485.779-.714l.209-.178c.246-.206.495-.405.75-.594l.07-.054c.276-.203.557-.393.841-.578.076-.05.153-.098.23-.147.253-.159.509-.313.766-.459l.112-.065c.293-.163.588-.317.885-.464l.222-.108c.266-.128.533-.252.8-.368l.11-.049a24.384 24.384 0 0 1 1.96-.741l.048-.016c.325-.107.648-.206.967-.298l.036-.01a31.52 31.52 0 0 1 5.803-1.072 8.239 8.239 0 0 1 3.045 6.404v17.488c0 4.565-3.714 8.278-8.278 8.278h-5.969a7.501 7.501 0 0 0-7.5 7.341c-.458 21.339-9.533 41.165-24.898 54.394-15.933 13.719-34.359 20.8-54.771 21.046-20.414-.245-38.839-7.325-54.774-21.045zm17.523 101.821a2.745 2.745 0 0 1-3.322-.934l-30.254-42.336 7.869-1.462c.428-.078.873.024 1.222.285l1.963 1.467.032.024 44.793 33.481-22.303 9.475zm18.881 127.991 13.687-98.358h9.36l13.687 98.358h-36.734zm191.172 0h-30.008v-60.833c0-4.144-3.359-7.502-7.502-7.502s-7.502 3.358-7.502 7.502v60.833h-94.275l-14.409-103.538 9.99-11.614 2.285.971a17.876 17.876 0 0 0 6.998 1.435c5.579 0 10.962-2.649 14.397-7.457l34.327-48.036 43.261 8.036a73.937 73.937 0 0 1 6.616 2.345c-7.934 8.864-8.523 22.455-.819 32.01l8.165 10.126c4.147 5.143 10.048 8.363 16.617 9.067.898.097 1.794.145 2.685.145 5.567 0 10.926-1.871 15.341-5.381a72.628 72.628 0 0 1 3.172 21.283v81.268h.001c.001 5.15-4.19 9.34-9.34 9.34z" fill="#945252" opacity="1" data-original="#000000" class=""></path><path d="M358.408 428.66h-39.509c-6.758 0-12.256 5.498-12.256 12.256v21.049c0 6.758 5.498 12.256 12.256 12.256h39.509c6.758 0 12.255-5.498 12.255-12.256v-21.049c0-6.759-5.498-12.256-12.255-12.256zm-36.762 30.555v-15.551h34.011v15.551h-34.011zM193.101 428.659h-39.509c-6.758 0-12.255 5.498-12.255 12.256v21.049c0 6.758 5.498 12.256 12.255 12.256h39.509c6.758 0 12.256-5.498 12.256-12.256v-21.049c.001-6.758-5.498-12.256-12.256-12.256zm-2.748 30.556h-34.011v-15.551h34.011v15.551z" fill="#945252" opacity="1" data-original="#000000" class=""></path></g></svg>